<?xml version="1.0" encoding="UTF-8" standalone="no"?><!DOCTYPE svg PUBLIC "-//W3C//DTD SVG 1.1//EN" "http://www.w3.org/Graphics/SVG/1.1/DTD/svg11.dtd"><svg width="100%" height="100%" viewBox="0 0 32 32" version="1.1" xmlns="http://www.w3.org/2000/svg" xmlns:xlink="http://www.w3.org/1999/xlink" xml:space="preserve" xmlns:serif="http://www.serif.com/" style="fill-rule:evenodd;clip-rule:evenodd;stroke-linejoin:round;stroke-miterlimit:1.41421;"><path d="M15.263,2c7.727,0 14.737,6.83 14.737,14.359c0,7.529 -6.273,13.641 -14,13.641c-7.727,0 -14,-6.112 -14,-13.641c0,-7.529 6.273,-12.923 14,-12.923" style="fill:#efefef;"/><path d="M15.451,1.502l0.188,0.004l0.187,0.007l0.187,0.01l0.186,0.012l0.186,0.014l0.186,0.017l0.185,0.019l0.184,0.022l0.185,0.025l0.183,0.026l0.184,0.029l0.182,0.032l0.182,0.034l0.182,0.036l0.181,0.038l0.18,0.041l0.18,0.043l0.179,0.045l0.178,0.048l0.178,0.049l0.177,0.052l0.176,0.054l0.176,0.057l0.175,0.058l0.174,0.06l0.173,0.063l0.172,0.065l0.172,0.066l0.171,0.069l0.17,0.071l0.169,0.073l0.168,0.075l0.167,0.076l0.166,0.079l0.165,0.081l0.165,0.082l0.163,0.085l0.162,0.086l0.162,0.088l0.16,0.09l0.159,0.092l0.158,0.094l0.157,0.095l0.156,0.097l0.155,0.099l0.154,0.101l0.152,0.102l0.152,0.105l0.15,0.105l0.149,0.108l0.147,0.109l0.147,0.111l0.145,0.112l0.144,0.114l0.142,0.115l0.142,0.117l0.14,0.119l0.138,0.12l0.137,0.122l0.136,0.123l0.135,0.124l0.133,0.126l0.131,0.128l0.13,0.129l0.129,0.13l0.127,0.131l0.125,0.133l0.124,0.135l0.123,0.135l0.121,0.137l0.119,0.139l0.118,0.139l0.116,0.141l0.115,0.142l0.112,0.143l0.112,0.145l0.109,0.145l0.108,0.147l0.106,0.148l0.104,0.149l0.103,0.15l0.1,0.152l0.099,0.152l0.097,0.154l0.096,0.154l0.093,0.156l0.091,0.156l0.09,0.158l0.088,0.159l0.086,0.159l0.083,0.161l0.082,0.161l0.08,0.162l0.078,0.164l0.076,0.164l0.074,0.165l0.071,0.165l0.07,0.167l0.067,0.168l0.066,0.168l0.063,0.169l0.061,0.17l0.059,0.17l0.057,0.171l0.054,0.172l0.053,0.173l0.05,0.173l0.047,0.174l0.046,0.175l0.043,0.175l0.041,0.176l0.038,0.176l0.036,0.177l0.034,0.177l0.031,0.178l0.029,0.179l0.026,0.178l0.024,0.18l0.022,0.18l0.019,0.18l0.016,0.181l0.014,0.181l0.011,0.181l0.009,0.182l0.006,0.182l0.004,0.182l0,0.183l-0.001,0.182l-0.004,0.181l-0.007,0.181l-0.008,0.18l-0.011,0.18l-0.014,0.179l-0.015,0.178l-0.018,0.178l-0.02,0.177l-0.023,0.176l-0.024,0.176l-0.027,0.175l-0.029,0.175l-0.031,0.173l-0.033,0.173l-0.036,0.172l-0.038,0.171l-0.039,0.171l-0.042,0.17l-0.044,0.169l-0.046,0.168l-0.049,0.167l-0.05,0.167l-0.052,0.165l-0.054,0.165l-0.056,0.164l-0.059,0.163l-0.06,0.162l-0.062,0.161l-0.064,0.16l-0.066,0.159l-0.068,0.158l-0.07,0.157l-0.072,0.156l-0.074,0.155l-0.075,0.154l-0.078,0.153l-0.079,0.152l-0.081,0.151l-0.083,0.15l-0.085,0.149l-0.086,0.147l-0.088,0.147l-0.09,0.145l-0.092,0.144l-0.093,0.143l-0.095,0.142l-0.097,0.14l-0.099,0.14l-0.1,0.138l-0.102,0.137l-0.103,0.135l-0.105,0.134l-0.107,0.134l-0.108,0.131l-0.11,0.131l-0.111,0.129l-0.113,0.128l-0.114,0.126l-0.116,0.125l-0.118,0.124l-0.119,0.122l-0.12,0.121l-0.122,0.12l-0.123,0.118l-0.125,0.117l-0.126,0.115l-0.128,0.113l-0.129,0.113l-0.13,0.11l-0.132,0.11l-0.133,0.107l-0.134,0.107l-0.136,0.104l-0.137,0.103l-0.138,0.102l-0.139,0.1l-0.141,0.098l-0.142,0.096l-0.144,0.095l-0.144,0.094l-0.146,0.092l-0.147,0.09l-0.148,0.088l-0.149,0.087l-0.15,0.085l-0.152,0.083l-0.152,0.081l-0.154,0.08l-0.155,0.078l-0.156,0.076l-0.157,0.074l-0.158,0.073l-0.159,0.071l-0.16,0.069l-0.161,0.067l-0.162,0.065l-0.163,0.063l-0.164,0.062l-0.165,0.059l-0.166,0.058l-0.167,0.055l-0.167,0.054l-0.169,0.052l-0.169,0.05l-0.171,0.047l-0.171,0.046l-0.172,0.044l-0.172,0.042l-0.174,0.039l-0.174,0.038l-0.176,0.036l-0.175,0.033l-0.177,0.032l-0.177,0.029l-0.179,0.027l-0.178,0.025l-0.18,0.023l-0.18,0.021l-0.181,0.018l-0.181,0.017l-0.182,0.014l-0.183,0.012l-0.183,0.009l-0.184,0.008l-0.185,0.005l-0.184,0.003l-0.186,0.001l-0.185,-0.002l-0.185,-0.004l-0.185,-0.006l-0.184,-0.009l-0.183,-0.01l-0.182,-0.013l-0.182,-0.015l-0.181,-0.018l-0.181,-0.019l-0.18,-0.022l-0.179,-0.024l-0.179,-0.026l-0.177,-0.028l-0.178,-0.03l-0.176,-0.032l-0.175,-0.035l-0.175,-0.036l-0.174,-0.039l-0.173,-0.04l-0.173,-0.043l-0.171,-0.045l-0.171,-0.046l-0.17,-0.049l-0.168,-0.05l-0.168,-0.053l-0.168,-0.055l-0.166,-0.056l-0.165,-0.058l-0.164,-0.061l-0.164,-0.062l-0.162,-0.064l-0.161,-0.066l-0.161,-0.068l-0.159,-0.069l-0.158,-0.072l-0.158,-0.073l-0.156,-0.075l-0.155,-0.077l-0.154,-0.078l-0.153,-0.081l-0.151,-0.082l-0.151,-0.083l-0.15,-0.086l-0.148,-0.087l-0.147,-0.089l-0.146,-0.091l-0.145,-0.092l-0.143,-0.094l-0.143,-0.095l-0.141,-0.097l-0.14,-0.099l-0.138,-0.1l-0.137,-0.102l-0.136,-0.104l-0.135,-0.104l-0.133,-0.107l-0.132,-0.108l-0.131,-0.109l-0.129,-0.112l-0.128,-0.112l-0.126,-0.114l-0.125,-0.115l-0.124,-0.117l-0.122,-0.118l-0.121,-0.12l-0.119,-0.121l-0.118,-0.123l-0.116,-0.123l-0.115,-0.125l-0.113,-0.127l-0.112,-0.128l-0.11,-0.129l-0.108,-0.13l-0.107,-0.132l-0.106,-0.133l-0.103,-0.134l-0.103,-0.136l-0.1,-0.136l-0.099,-0.138l-0.097,-0.14l-0.096,-0.14l-0.093,-0.141l-0.093,-0.143l-0.09,-0.144l-0.089,-0.145l-0.087,-0.146l-0.085,-0.147l-0.083,-0.148l-0.082,-0.15l-0.079,-0.15l-0.078,-0.151l-0.077,-0.153l-0.074,-0.153l-0.072,-0.155l-0.071,-0.155l-0.068,-0.157l-0.067,-0.157l-0.065,-0.159l-0.063,-0.159l-0.061,-0.16l-0.059,-0.161l-0.057,-0.163l-0.055,-0.162l-0.053,-0.164l-0.051,-0.165l-0.049,-0.165l-0.046,-0.167l-0.045,-0.167l-0.043,-0.168l-0.041,-0.169l-0.038,-0.169l-0.037,-0.17l-0.034,-0.171l-0.032,-0.172l-0.03,-0.173l-0.028,-0.173l-0.026,-0.173l-0.023,-0.175l-0.022,-0.175l-0.019,-0.176l-0.016,-0.176l-0.015,-0.177l-0.012,-0.178l-0.01,-0.178l-0.008,-0.179l-0.005,-0.179l-0.003,-0.18l-0.001,-0.18l0.002,-0.18l0.004,-0.18l0.006,-0.178l0.009,-0.178l0.011,-0.177l0.013,-0.176l0.015,-0.175l0.018,-0.175l0.02,-0.173l0.022,-0.173l0.025,-0.172l0.026,-0.171l0.029,-0.17l0.031,-0.169l0.033,-0.168l0.035,-0.167l0.038,-0.166l0.039,-0.166l0.042,-0.164l0.043,-0.163l0.046,-0.163l0.048,-0.161l0.05,-0.16l0.052,-0.159l0.054,-0.159l0.055,-0.157l0.058,-0.156l0.06,-0.155l0.062,-0.154l0.064,-0.153l0.065,-0.152l0.068,-0.15l0.069,-0.15l0.072,-0.149l0.073,-0.147l0.075,-0.146l0.077,-0.145l0.079,-0.144l0.08,-0.143l0.083,-0.141l0.084,-0.14l0.085,-0.139l0.088,-0.138l0.089,-0.137l0.092,-0.135l0.092,-0.134l0.095,-0.133l0.096,-0.132l0.098,-0.13l0.099,-0.129l0.101,-0.128l0.103,-0.127l0.104,-0.125l0.106,-0.124l0.108,-0.122l0.109,-0.121l0.111,-0.12l0.112,-0.119l0.113,-0.117l0.115,-0.115l0.117,-0.115l0.118,-0.113l0.12,-0.111l0.121,-0.11l0.122,-0.109l0.124,-0.107l0.125,-0.106l0.127,-0.104l0.128,-0.103l0.129,-0.102l0.131,-0.099l0.132,-0.099l0.133,-0.097l0.135,-0.095l0.136,-0.094l0.137,-0.093l0.139,-0.09l0.139,-0.09l0.141,-0.088l0.142,-0.086l0.144,-0.084l0.144,-0.083l0.146,-0.082l0.147,-0.08l0.148,-0.078l0.149,-0.077l0.15,-0.075l0.151,-0.073l0.153,-0.072l0.153,-0.07l0.155,-0.068l0.156,-0.067l0.156,-0.065l0.158,-0.063l0.158,-0.062l0.16,-0.06l0.161,-0.058l0.161,-0.057l0.163,-0.054l0.163,-0.053l0.164,-0.052l0.166,-0.049l0.166,-0.048l0.167,-0.046l0.167,-0.044l0.169,-0.043l0.17,-0.04l0.17,-0.039l0.171,-0.037l0.172,-0.035l0.173,-0.033l0.173,-0.031l0.174,-0.03l0.175,-0.028l0.176,-0.025l0.176,-0.024l0.177,-0.022l0.178,-0.02l0.178,-0.019l0.179,-0.016l0.18,-0.014l0.18,-0.012l0.181,-0.011l0.182,-0.008l0.182,-0.007l0.182,-0.004l0.183,-0.003l0.183,0l0.261,0.257l-0.259,0.261l-0.179,0.002l-0.177,0.003l-0.177,0.005l-0.177,0.008l-0.175,0.009l-0.175,0.011l-0.175,0.013l-0.174,0.014l-0.173,0.017l-0.172,0.019l-0.172,0.02l-0.171,0.022l-0.17,0.024l-0.17,0.026l-0.169,0.028l-0.168,0.029l-0.168,0.032l-0.166,0.033l-0.166,0.034l-0.165,0.037l-0.164,0.038l-0.164,0.04l-0.162,0.042l-0.162,0.044l-0.161,0.045l-0.16,0.047l-0.159,0.048l-0.158,0.051l-0.157,0.052l-0.157,0.053l-0.155,0.056l-0.154,0.057l-0.154,0.058l-0.152,0.061l-0.152,0.061l-0.15,0.064l-0.15,0.065l-0.148,0.066l-0.147,0.069l-0.146,0.07l-0.145,0.071l-0.145,0.073l-0.142,0.074l-0.142,0.076l-0.141,0.078l-0.139,0.079l-0.139,0.08l-0.137,0.082l-0.136,0.084l-0.135,0.085l-0.133,0.086l-0.133,0.088l-0.131,0.089l-0.129,0.091l-0.129,0.092l-0.127,0.094l-0.126,0.095l-0.125,0.096l-0.123,0.098l-0.122,0.099l-0.121,0.101l-0.119,0.102l-0.118,0.103l-0.117,0.105l-0.115,0.106l-0.114,0.107l-0.112,0.108l-0.111,0.11l-0.109,0.111l-0.108,0.113l-0.107,0.114l-0.105,0.115l-0.103,0.116l-0.102,0.117l-0.101,0.119l-0.098,0.12l-0.098,0.121l-0.096,0.123l-0.094,0.123l-0.092,0.125l-0.091,0.126l-0.09,0.127l-0.087,0.128l-0.086,0.13l-0.085,0.131l-0.083,0.131l-0.081,0.133l-0.079,0.134l-0.078,0.135l-0.076,0.137l-0.074,0.137l-0.072,0.138l-0.071,0.14l-0.069,0.14l-0.067,0.142l-0.065,0.143l-0.064,0.143l-0.061,0.145l-0.06,0.146l-0.058,0.147l-0.056,0.147l-0.054,0.149l-0.053,0.15l-0.05,0.151l-0.048,0.152l-0.047,0.152l-0.045,0.154l-0.042,0.155l-0.041,0.155l-0.039,0.157l-0.036,0.157l-0.035,0.158l-0.033,0.16l-0.03,0.16l-0.029,0.161l-0.026,0.162l-0.025,0.163l-0.022,0.163l-0.02,0.165l-0.018,0.165l-0.016,0.166l-0.014,0.167l-0.012,0.168l-0.009,0.169l-0.008,0.17l-0.005,0.17l-0.003,0.171l0,0.172l0.001,0.172l0.004,0.172l0.006,0.17l0.009,0.171l0.01,0.17l0.013,0.169l0.014,0.168l0.017,0.168l0.019,0.168l0.021,0.167l0.024,0.166l0.025,0.165l0.027,0.165l0.03,0.164l0.032,0.163l0.033,0.163l0.036,0.162l0.037,0.161l0.04,0.16l0.041,0.16l0.044,0.159l0.046,0.158l0.047,0.157l0.049,0.156l0.052,0.156l0.053,0.155l0.055,0.154l0.057,0.153l0.059,0.152l0.06,0.151l0.063,0.15l0.064,0.15l0.066,0.148l0.068,0.148l0.07,0.147l0.071,0.145l0.074,0.145l0.075,0.144l0.076,0.142l0.079,0.142l0.08,0.141l0.082,0.139l0.083,0.139l0.085,0.137l0.087,0.136l0.088,0.136l0.09,0.134l0.092,0.133l0.093,0.132l0.095,0.13l0.096,0.13l0.098,0.128l0.1,0.127l0.1,0.126l0.103,0.125l0.104,0.124l0.105,0.122l0.107,0.121l0.109,0.12l0.109,0.118l0.112,0.117l0.112,0.116l0.114,0.115l0.116,0.113l0.117,0.112l0.118,0.11l0.119,0.109l0.121,0.108l0.123,0.106l0.123,0.105l0.125,0.104l0.126,0.102l0.127,0.1l0.129,0.1l0.13,0.097l0.131,0.096l0.132,0.095l0.133,0.093l0.135,0.092l0.136,0.09l0.137,0.088l0.138,0.087l0.139,0.085l0.141,0.084l0.141,0.082l0.143,0.081l0.143,0.079l0.145,0.077l0.146,0.075l0.146,0.074l0.148,0.072l0.149,0.071l0.15,0.069l0.15,0.067l0.152,0.065l0.153,0.063l0.153,0.062l0.155,0.06l0.155,0.058l0.157,0.057l0.157,0.054l0.158,0.053l0.159,0.051l0.16,0.049l0.161,0.047l0.161,0.046l0.162,0.043l0.163,0.041l0.164,0.04l0.165,0.038l0.165,0.035l0.166,0.034l0.167,0.032l0.168,0.03l0.168,0.027l0.169,0.026l0.17,0.024l0.17,0.021l0.171,0.02l0.171,0.018l0.172,0.015l0.173,0.014l0.174,0.011l0.174,0.009l0.174,0.007l0.175,0.005l0.176,0.003l0.176,0l0.176,-0.001l0.176,-0.004l0.175,-0.006l0.174,-0.008l0.174,-0.01l0.173,-0.012l0.173,-0.015l0.172,-0.016l0.171,-0.019l0.171,-0.02l0.17,-0.023l0.169,-0.025l0.169,-0.026l0.168,-0.029l0.167,-0.031l0.167,-0.032l0.165,-0.035l0.165,-0.037l0.164,-0.038l0.164,-0.04l0.162,-0.043l0.162,-0.044l0.161,-0.046l0.16,-0.048l0.16,-0.05l0.158,-0.052l0.157,-0.053l0.157,-0.056l0.156,-0.057l0.155,-0.059l0.153,-0.061l0.153,-0.062l0.152,-0.064l0.151,-0.066l0.15,-0.068l0.149,-0.069l0.148,-0.072l0.147,-0.072l0.146,-0.075l0.145,-0.076l0.144,-0.078l0.143,-0.079l0.142,-0.081l0.14,-0.083l0.14,-0.084l0.138,-0.086l0.137,-0.087l0.136,-0.089l0.135,-0.091l0.134,-0.092l0.132,-0.094l0.131,-0.095l0.13,-0.096l0.129,-0.098l0.128,-0.1l0.126,-0.1l0.125,-0.103l0.124,-0.104l0.122,-0.105l0.121,-0.106l0.12,-0.108l0.118,-0.11l0.117,-0.11l0.116,-0.112l0.114,-0.114l0.113,-0.114l0.112,-0.116l0.11,-0.118l0.108,-0.118l0.108,-0.12l0.105,-0.121l0.104,-0.122l0.103,-0.124l0.101,-0.124l0.1,-0.126l0.098,-0.127l0.097,-0.128l0.095,-0.13l0.094,-0.13l0.092,-0.132l0.09,-0.133l0.089,-0.134l0.087,-0.135l0.085,-0.136l0.084,-0.137l0.082,-0.138l0.081,-0.139l0.079,-0.14l0.077,-0.141l0.075,-0.143l0.074,-0.143l0.072,-0.144l0.07,-0.145l0.068,-0.146l0.067,-0.147l0.065,-0.148l0.063,-0.149l0.061,-0.149l0.059,-0.151l0.058,-0.151l0.055,-0.152l0.054,-0.154l0.052,-0.153l0.05,-0.155l0.048,-0.156l0.047,-0.156l0.044,-0.157l0.042,-0.158l0.041,-0.159l0.038,-0.159l0.036,-0.16l0.035,-0.161l0.032,-0.161l0.03,-0.162l0.029,-0.163l0.026,-0.164l0.024,-0.164l0.022,-0.165l0.02,-0.165l0.018,-0.166l0.016,-0.167l0.014,-0.167l0.011,-0.168l0.01,-0.168l0.007,-0.169l0.005,-0.17l0.003,-0.17l0.001,-0.17l-0.002,-0.17l-0.004,-0.17l-0.007,-0.169l-0.009,-0.169l-0.011,-0.169l-0.014,-0.169l-0.017,-0.168l-0.018,-0.168l-0.021,-0.167l-0.023,-0.167l-0.026,-0.167l-0.028,-0.166l-0.03,-0.166l-0.032,-0.165l-0.035,-0.165l-0.036,-0.165l-0.039,-0.164l-0.042,-0.163l-0.043,-0.163l-0.045,-0.162l-0.048,-0.162l-0.05,-0.161l-0.052,-0.161l-0.054,-0.16l-0.056,-0.159l-0.058,-0.159l-0.06,-0.158l-0.062,-0.157l-0.064,-0.157l-0.067,-0.156l-0.068,-0.155l-0.07,-0.154l-0.072,-0.154l-0.074,-0.153l-0.076,-0.152l-0.077,-0.151l-0.08,-0.15l-0.081,-0.15l-0.084,-0.148l-0.085,-0.148l-0.087,-0.147l-0.088,-0.146l-0.091,-0.145l-0.092,-0.144l-0.094,-0.143l-0.095,-0.142l-0.098,-0.141l-0.099,-0.14l-0.1,-0.139l-0.103,-0.137l-0.104,-0.137l-0.105,-0.136l-0.107,-0.134l-0.109,-0.133l-0.11,-0.132l-0.112,-0.131l-0.113,-0.13l-0.115,-0.129l-0.116,-0.127l-0.118,-0.126l-0.119,-0.125l-0.12,-0.123l-0.122,-0.122l-0.124,-0.121l-0.125,-0.12l-0.126,-0.118l-0.127,-0.117l-0.129,-0.115l-0.13,-0.114l-0.131,-0.112l-0.133,-0.112l-0.133,-0.109l-0.135,-0.108l-0.137,-0.107l-0.137,-0.105l-0.139,-0.104l-0.139,-0.102l-0.141,-0.1l-0.142,-0.099l-0.143,-0.097l-0.144,-0.096l-0.145,-0.094l-0.147,-0.092l-0.147,-0.091l-0.148,-0.089l-0.149,-0.087l-0.151,-0.086l-0.151,-0.083l-0.152,-0.082l-0.153,-0.081l-0.154,-0.078l-0.154,-0.077l-0.156,-0.075l-0.156,-0.073l-0.157,-0.071l-0.158,-0.069l-0.159,-0.067l-0.16,-0.066l-0.16,-0.063l-0.161,-0.062l-0.162,-0.06l-0.162,-0.057l-0.163,-0.056l-0.164,-0.054l-0.164,-0.051l-0.165,-0.05l-0.166,-0.047l-0.166,-0.046l-0.167,-0.043l-0.167,-0.042l-0.168,-0.039l-0.168,-0.037l-0.169,-0.035l-0.169,-0.032l-0.17,-0.031l-0.17,-0.028l-0.171,-0.026l-0.171,-0.024l-0.171,-0.022l-0.172,-0.019l-0.172,-0.017l-0.172,-0.015l-0.173,-0.013l-0.173,-0.01l-0.173,-0.008l-0.174,-0.005l-0.174,-0.003l-0.177,-0.001l-0.497,-0.503l0.504,-0.497l0.184,0.002Z"/></svg>