<?xml version="1.0" encoding="UTF-8" standalone="no"?><!DOCTYPE svg PUBLIC "-//W3C//DTD SVG 1.1//EN" "http://www.w3.org/Graphics/SVG/1.1/DTD/svg11.dtd"><svg width="100%" height="100%" viewBox="0 0 48 48" version="1.1" xmlns="http://www.w3.org/2000/svg" xmlns:xlink="http://www.w3.org/1999/xlink" xml:space="preserve" xmlns:serif="http://www.serif.com/" style="fill-rule:evenodd;clip-rule:evenodd;stroke-linecap:round;stroke-linejoin:round;stroke-miterlimit:1.5;"><rect x="0" y="0" width="48" height="48" style="fill:none;"/><g><path d="M17.646,24.918c1.911,1.291 2.357,19.746 0,20.082" style="fill:none;stroke:#000;stroke-width:1px;"/><path d="M14.074,29.458l13.29,0c17.477,-0.013 13.221,-21.256 5.347,-18.727c0.178,-8.793 -21.388,-5.393 -17.83,4.777c-7.179,-0.232 -9.179,14.165 -0.807,13.95Z" style="fill:#fff;"/><path d="M12.926,26.774l13.291,0c17.476,-0.013 13.22,-21.256 5.347,-18.727c0.178,-8.793 -21.388,-5.393 -17.83,4.777c-7.179,-0.233 -9.179,14.165 -0.808,13.95Z" style="fill:none;stroke:#000;stroke-width:1px;stroke-linecap:butt;stroke-miterlimit:2;"/><path d="M26.128,22.771c-1.399,3.294 -2.192,16.788 1.611,22.229" style="fill:none;stroke:#000;stroke-width:1px;"/></g></svg>