<?xml version="1.0" encoding="UTF-8" standalone="no"?><!DOCTYPE svg PUBLIC "-//W3C//DTD SVG 1.1//EN" "http://www.w3.org/Graphics/SVG/1.1/DTD/svg11.dtd"><svg width="100%" height="100%" viewBox="0 0 96 96" version="1.1" xmlns="http://www.w3.org/2000/svg" xmlns:xlink="http://www.w3.org/1999/xlink" xml:space="preserve" xmlns:serif="http://www.serif.com/" style="fill-rule:evenodd;clip-rule:evenodd;stroke-linecap:round;stroke-linejoin:round;stroke-miterlimit:1.5;"><g><g><path d="M83.568,57.104c1.067,-0.285 1.7,-1.382 1.415,-2.449c-1.631,-6.087 -6.652,-24.823 -8.283,-30.91c-0.286,-1.067 -1.382,-1.7 -2.449,-1.414c-9.613,2.576 -52.207,13.989 -61.819,16.565c-1.067,0.285 -1.7,1.382 -1.415,2.449c1.631,6.087 6.652,24.823 8.283,30.91c0.286,1.067 1.382,1.7 2.449,1.414c9.613,-2.576 52.207,-13.989 61.819,-16.565Z" style="fill:#fff;stroke:#000;stroke-width:4px;"/><path d="M83.5,74.187c1.105,0 2,-0.896 2,-2c0,-6.302 0,-25.699 0,-32.001c0,-1.104 -0.895,-1.999 -2,-1.999c-9.951,0 -54.048,0 -64,0c-1.104,0 -2,0.895 -2,1.999c0,6.302 0,25.699 0,32.001c0,1.104 0.896,2 2,2c9.952,0 54.049,0 64,0Z" style="fill:#fff;stroke:#000;stroke-width:4px;"/></g></g></svg>