<?xml version="1.0" encoding="UTF-8" standalone="no"?><!DOCTYPE svg PUBLIC "-//W3C//DTD SVG 1.1//EN" "http://www.w3.org/Graphics/SVG/1.1/DTD/svg11.dtd"><svg width="100%" height="100%" viewBox="0 0 240 140" version="1.1" xmlns="http://www.w3.org/2000/svg" xmlns:xlink="http://www.w3.org/1999/xlink" xml:space="preserve" xmlns:serif="http://www.serif.com/" style="fill-rule:evenodd;clip-rule:evenodd;stroke-linecap:round;stroke-linejoin:round;stroke-miterlimit:1.5;"><g><g><path d="M200.643,24.862c0.031,-0.662 -0.202,-1.31 -0.648,-1.8c-0.447,-0.491 -1.07,-0.783 -1.732,-0.815c-18.905,-0.887 -139.275,-6.538 -158.18,-7.425c-0.662,-0.032 -1.31,0.202 -1.8,0.648c-0.49,0.446 -0.783,1.069 -0.814,1.732c-0.604,12.853 -3.355,71.447 -3.958,84.3c-0.031,0.662 0.202,1.31 0.649,1.8c0.446,0.49 1.069,0.783 1.731,0.814c18.905,0.888 139.275,6.539 158.18,7.426c0.663,0.031 1.31,-0.202 1.8,-0.648c0.491,-0.447 0.784,-1.069 0.815,-1.732c0.603,-12.853 3.354,-71.447 3.957,-84.3Z" style="fill:#30b3ff;"/><path d="M192.008,12.5c0,-0.663 -0.263,-1.299 -0.732,-1.768c-0.469,-0.469 -1.105,-0.732 -1.768,-0.732l-158.354,0c-0.663,0 -1.299,0.263 -1.768,0.732c-0.469,0.469 -0.732,1.105 -0.732,1.768l0,84.393c0,0.663 0.263,1.299 0.732,1.768c0.469,0.469 1.105,0.732 1.768,0.732l158.354,0c0.663,0 1.299,-0.263 1.768,-0.732c0.469,-0.469 0.732,-1.105 0.732,-1.768l0,-84.393Z" style="fill:none;stroke:#000;stroke-width:4px;"/><g><path d="M132.298,84l6.703,-6.498l-14.907,-14.908l9.075,-9.075l-36.518,-11.767l11.767,36.519l9.075,-9.076l14.805,14.805Z" style="fill:#fff;stroke:#000;stroke-width:4px;"/><g><path d="M104.912,35.09c-2.914,-3.637 -7.877,-4.919 -12.188,-3.148c-5.361,2.204 -7.924,8.344 -5.721,13.705c1.772,4.311 6.173,6.939 10.808,6.453" style="fill:none;stroke:#000;stroke-width:2px;"/><path d="M110.586,29.515c-5.415,-6.06 -14.176,-7.826 -21.516,-4.336c-9.127,4.339 -13.013,15.272 -8.674,24.398c3.49,7.34 11.399,11.501 19.424,10.219" style="fill:none;stroke:#000;stroke-width:2px;"/></g></g><path d="M210.933,61.04c0.228,-1.361 -0.691,-2.651 -2.052,-2.879c-7.201,-1.208 -28.144,-4.722 -35.345,-5.93c-1.361,-0.229 -2.651,0.69 -2.879,2.051c-1.845,10.996 -9.312,55.499 -11.157,66.495c-0.229,1.361 0.69,2.65 2.052,2.879c7.2,1.208 28.144,4.722 35.344,5.93c1.362,0.229 2.651,-0.69 2.879,-2.052c1.845,-10.995 9.313,-55.498 11.158,-66.494Z" style="fill:#fff;stroke:#000;stroke-width:4px;"/></g><rect x="0" y="0" width="240" height="140" style="fill:none;"/></g></svg>